<svg width="48" height="48" viewBox="0 0 48 48" fill="none" xmlns="http://www.w3.org/2000/svg">
<mask id="path-1-outside-1_202_714" maskUnits="userSpaceOnUse" x="0" y="0" width="48" height="48" fill="black">
<rect fill="white" width="48" height="48"/>
<path fill-rule="evenodd" clip-rule="evenodd" d="M29.2204 1.16038C28.8379 1.39747 25.6346 4.65584 24.2624 6.20358C20.4477 10.5066 17.4871 14.7586 15.4518 18.8569L14.6784 20.4145L14.4025 20.3623C12.454 19.9931 11.3408 20.184 9.88538 21.1368C8.7193 21.9002 8.34555 22.0375 7.43327 22.0375C6.521 22.0375 6.14725 21.9002 4.98117 21.1368C4.13277 20.5814 3.48212 20.3276 2.62861 20.2195C1.67249 20.0982 1.23262 20.2631 1.05194 20.8106C0.922296 21.2034 1.06443 21.6736 1.37412 21.8765C1.49559 21.9561 1.87159 22.056 2.20976 22.0984C2.93057 22.1889 3.43612 22.3965 4.20186 22.9165C6.31867 24.354 8.53404 24.3612 10.635 22.9374C11.6015 22.2825 11.9011 22.1671 12.7466 22.1242C13.7054 22.0756 14.1721 22.2149 15.116 22.8311C16.0873 23.4652 16.6269 23.7197 17.3043 23.8633C18.0676 24.0251 18.8179 24.0235 19.5968 23.8585C20.3411 23.7007 20.7123 23.5274 21.803 22.8281C22.6245 22.3013 22.9529 22.1853 23.9791 22.059C24.8683 21.9496 25.2007 21.0659 24.5867 20.4439C24.3358 20.1898 24.2843 20.1756 23.6819 20.1938C22.6479 20.225 21.7377 20.5551 20.6403 21.2968C20.3685 21.4804 20.0198 21.6956 19.8655 21.7749C19.4209 22.0034 18.5104 22.1154 17.9025 22.0164C17.2864 21.9162 16.4176 21.5072 16.4176 21.3175C16.4176 21.1594 17.6718 18.6434 18.2699 17.6014C20.6845 13.3952 24.7861 8.16828 28.7632 4.22908L29.7135 3.28788L30.3074 3.8697C32.5325 6.04976 35.4395 9.36455 37.3573 11.9087C42.7966 19.1245 45.3865 25.5354 44.9865 30.7943C44.6986 34.5806 43.1784 37.9131 40.5317 40.5598C35.9721 45.1194 29.0339 46.3503 23.2716 43.622C21.7872 42.9192 19.4346 41.3214 19.6283 41.1477C19.666 41.1138 19.9258 41.0158 20.2055 40.93C20.4852 40.8441 21.1469 40.4971 21.676 40.1589C22.6325 39.5472 22.9275 39.4384 23.9791 39.309C24.8683 39.1996 25.2007 38.3159 24.5867 37.6939C24.3358 37.4398 24.2843 37.4256 23.6819 37.4438C22.6078 37.4763 21.827 37.7688 20.497 38.637C19.6767 39.1725 19.2879 39.2927 18.3941 39.2867C17.5891 39.2814 17.0466 39.0965 16.2504 38.5558C15.2949 37.9068 14.4737 37.5652 13.642 37.4703C12.2248 37.3087 11.1208 37.578 9.88538 38.3868C8.7193 39.1502 8.34555 39.2875 7.43327 39.2875C6.521 39.2875 6.14725 39.1502 4.98117 38.3868C4.13277 37.8314 3.48212 37.5776 2.62861 37.4695C1.67249 37.3482 1.23262 37.5131 1.05194 38.0606C0.922296 38.4533 1.06443 38.9236 1.37412 39.1265C1.49559 39.2061 1.87159 39.306 2.20976 39.3484C2.93057 39.4389 3.43612 39.6465 4.20186 40.1665C6.31867 41.604 8.53404 41.6112 10.635 40.1874C11.6015 39.5325 11.9011 39.4171 12.7466 39.3742C13.7054 39.3256 14.1721 39.4649 15.116 40.0811C15.4883 40.3241 15.984 40.6202 16.2176 40.7391C16.4614 40.8631 16.863 41.2057 17.1608 41.5437C18.3254 42.8657 20.2989 44.3101 22.2126 45.241C27.4546 47.7913 33.6899 47.5068 38.6091 44.4929C43.6531 41.4024 46.703 36.1946 46.9319 30.2817C47.0864 26.2881 45.6884 21.6144 42.8703 16.7041C41.0225 13.4845 38.4209 9.89723 35.5483 6.60787C34.2878 5.16435 30.4759 1.292 30.1458 1.11941C29.8182 0.948255 29.543 0.960384 29.2204 1.16038ZM1.73197 25.9459C1.17395 26.0845 0.872074 26.6299 1.05194 27.1747C1.1885 27.5884 1.47726 27.7564 2.20976 27.8484C2.93057 27.9389 3.43612 28.1465 4.20186 28.6665C6.31867 30.104 8.53404 30.1112 10.635 28.6874C11.4723 28.1201 11.8812 27.9469 12.6 27.8558C13.406 27.7537 13.6875 27.5888 13.8219 27.1401C13.987 26.589 13.7058 26.1384 13.0698 25.9348C12.8154 25.8533 11.6379 26.0347 11.0898 26.2398C10.8124 26.3436 10.2704 26.6347 9.88538 26.8868C8.7193 27.6502 8.34555 27.7875 7.43327 27.7875C6.54319 27.7875 6.08238 27.6258 5.12716 26.9784C4.42728 26.5042 3.97788 26.2824 3.38761 26.12C2.83498 25.968 1.99755 25.88 1.73197 25.9459ZM23.2451 25.9645C22.3363 26.0862 21.674 26.3687 20.497 27.137C19.773 27.6097 19.483 27.7154 18.6349 27.8161C17.7376 27.9227 17.2859 28.5371 17.6241 29.1912C17.9058 29.7359 18.4509 29.8513 19.5968 29.6085C20.332 29.4527 20.7693 29.2507 21.6988 28.6375C22.6064 28.0388 23.1232 27.8618 23.9645 27.8618C24.8323 27.8618 25.3159 28.0369 26.3903 28.7401C28.4864 30.1119 30.5933 30.082 32.6996 28.6505C33.3878 28.1828 34.145 27.861 34.5661 27.8575C35.4088 27.8505 35.9137 27.4796 35.9137 26.8676C35.9137 26.4465 35.6459 26.0927 35.2427 25.9814C34.8481 25.8724 33.7428 25.9971 33.1687 26.2152C32.9243 26.3081 32.2998 26.6492 31.7809 26.9733C30.657 27.6752 30.3467 27.7862 29.5021 27.7885C28.6385 27.7909 28.2429 27.6663 27.432 27.137C26.5426 26.5564 26.0036 26.2865 25.3982 26.1186C24.7695 25.9443 23.8748 25.8803 23.2451 25.9645ZM1.73197 31.6959C1.17395 31.8345 0.872074 32.3799 1.05194 32.9247C1.1885 33.3384 1.47726 33.5064 2.20976 33.5984C2.93057 33.6889 3.43612 33.8965 4.20186 34.4165C5.77485 35.4847 7.7099 35.819 8.17871 35.1036C8.44617 34.6954 8.40592 34.2054 8.0779 33.8773C7.86713 33.6666 7.7188 33.613 7.20193 33.5612C6.49926 33.4907 5.89245 33.2471 5.12716 32.7284C4.42728 32.2542 3.97788 32.0324 3.38761 31.87C2.83498 31.718 1.99755 31.63 1.73197 31.6959ZM12.6723 31.732C12.288 31.8384 12.0153 32.2027 12.0153 32.6097C12.0153 33.2129 12.51 33.6059 13.2693 33.6059C13.7553 33.6059 14.3919 33.8596 15.1313 34.348C16.7449 35.4139 17.9974 35.6973 19.5968 35.3585C20.332 35.2027 20.7693 35.0007 21.6988 34.3875C22.6201 33.7797 23.1192 33.6119 24.0094 33.611C24.8429 33.6101 25.3234 33.7758 26.423 34.4434C27.3879 35.0291 28.0856 35.3049 28.9049 35.4244C30.1578 35.6069 30.67 35.2838 30.6233 34.3402C30.6176 34.2252 30.4997 34.0179 30.3612 33.8794C30.1581 33.6763 29.9976 33.6157 29.5302 33.5658C28.6888 33.4759 28.2504 33.3109 27.2493 32.7071C26.1507 32.0446 25.6233 31.8424 24.6882 31.7251C23.1697 31.5348 22.1243 31.8248 20.4948 32.8884C19.6768 33.4225 19.2875 33.5431 18.3942 33.5393C17.5993 33.536 17.0558 33.3526 16.2781 32.825C15.5646 32.3409 14.7292 31.9265 14.2492 31.8182C13.6394 31.6807 12.9864 31.6451 12.6723 31.732Z"/>
</mask>
<path fill-rule="evenodd" clip-rule="evenodd" d="M29.2204 1.16038C28.8379 1.39747 25.6346 4.65584 24.2624 6.20358C20.4477 10.5066 17.4871 14.7586 15.4518 18.8569L14.6784 20.4145L14.4025 20.3623C12.454 19.9931 11.3408 20.184 9.88538 21.1368C8.7193 21.9002 8.34555 22.0375 7.43327 22.0375C6.521 22.0375 6.14725 21.9002 4.98117 21.1368C4.13277 20.5814 3.48212 20.3276 2.62861 20.2195C1.67249 20.0982 1.23262 20.2631 1.05194 20.8106C0.922296 21.2034 1.06443 21.6736 1.37412 21.8765C1.49559 21.9561 1.87159 22.056 2.20976 22.0984C2.93057 22.1889 3.43612 22.3965 4.20186 22.9165C6.31867 24.354 8.53404 24.3612 10.635 22.9374C11.6015 22.2825 11.9011 22.1671 12.7466 22.1242C13.7054 22.0756 14.1721 22.2149 15.116 22.8311C16.0873 23.4652 16.6269 23.7197 17.3043 23.8633C18.0676 24.0251 18.8179 24.0235 19.5968 23.8585C20.3411 23.7007 20.7123 23.5274 21.803 22.8281C22.6245 22.3013 22.9529 22.1853 23.9791 22.059C24.8683 21.9496 25.2007 21.0659 24.5867 20.4439C24.3358 20.1898 24.2843 20.1756 23.6819 20.1938C22.6479 20.225 21.7377 20.5551 20.6403 21.2968C20.3685 21.4804 20.0198 21.6956 19.8655 21.7749C19.4209 22.0034 18.5104 22.1154 17.9025 22.0164C17.2864 21.9162 16.4176 21.5072 16.4176 21.3175C16.4176 21.1594 17.6718 18.6434 18.2699 17.6014C20.6845 13.3952 24.7861 8.16828 28.7632 4.22908L29.7135 3.28788L30.3074 3.8697C32.5325 6.04976 35.4395 9.36455 37.3573 11.9087C42.7966 19.1245 45.3865 25.5354 44.9865 30.7943C44.6986 34.5806 43.1784 37.9131 40.5317 40.5598C35.9721 45.1194 29.0339 46.3503 23.2716 43.622C21.7872 42.9192 19.4346 41.3214 19.6283 41.1477C19.666 41.1138 19.9258 41.0158 20.2055 40.93C20.4852 40.8441 21.1469 40.4971 21.676 40.1589C22.6325 39.5472 22.9275 39.4384 23.9791 39.309C24.8683 39.1996 25.2007 38.3159 24.5867 37.6939C24.3358 37.4398 24.2843 37.4256 23.6819 37.4438C22.6078 37.4763 21.827 37.7688 20.497 38.637C19.6767 39.1725 19.2879 39.2927 18.3941 39.2867C17.5891 39.2814 17.0466 39.0965 16.2504 38.5558C15.2949 37.9068 14.4737 37.5652 13.642 37.4703C12.2248 37.3087 11.1208 37.578 9.88538 38.3868C8.7193 39.1502 8.34555 39.2875 7.43327 39.2875C6.521 39.2875 6.14725 39.1502 4.98117 38.3868C4.13277 37.8314 3.48212 37.5776 2.62861 37.4695C1.67249 37.3482 1.23262 37.5131 1.05194 38.0606C0.922296 38.4533 1.06443 38.9236 1.37412 39.1265C1.49559 39.2061 1.87159 39.306 2.20976 39.3484C2.93057 39.4389 3.43612 39.6465 4.20186 40.1665C6.31867 41.604 8.53404 41.6112 10.635 40.1874C11.6015 39.5325 11.9011 39.4171 12.7466 39.3742C13.7054 39.3256 14.1721 39.4649 15.116 40.0811C15.4883 40.3241 15.984 40.6202 16.2176 40.7391C16.4614 40.8631 16.863 41.2057 17.1608 41.5437C18.3254 42.8657 20.2989 44.3101 22.2126 45.241C27.4546 47.7913 33.6899 47.5068 38.6091 44.4929C43.6531 41.4024 46.703 36.1946 46.9319 30.2817C47.0864 26.2881 45.6884 21.6144 42.8703 16.7041C41.0225 13.4845 38.4209 9.89723 35.5483 6.60787C34.2878 5.16435 30.4759 1.292 30.1458 1.11941C29.8182 0.948255 29.543 0.960384 29.2204 1.16038ZM1.73197 25.9459C1.17395 26.0845 0.872074 26.6299 1.05194 27.1747C1.1885 27.5884 1.47726 27.7564 2.20976 27.8484C2.93057 27.9389 3.43612 28.1465 4.20186 28.6665C6.31867 30.104 8.53404 30.1112 10.635 28.6874C11.4723 28.1201 11.8812 27.9469 12.6 27.8558C13.406 27.7537 13.6875 27.5888 13.8219 27.1401C13.987 26.589 13.7058 26.1384 13.0698 25.9348C12.8154 25.8533 11.6379 26.0347 11.0898 26.2398C10.8124 26.3436 10.2704 26.6347 9.88538 26.8868C8.7193 27.6502 8.34555 27.7875 7.43327 27.7875C6.54319 27.7875 6.08238 27.6258 5.12716 26.9784C4.42728 26.5042 3.97788 26.2824 3.38761 26.12C2.83498 25.968 1.99755 25.88 1.73197 25.9459ZM23.2451 25.9645C22.3363 26.0862 21.674 26.3687 20.497 27.137C19.773 27.6097 19.483 27.7154 18.6349 27.8161C17.7376 27.9227 17.2859 28.5371 17.6241 29.1912C17.9058 29.7359 18.4509 29.8513 19.5968 29.6085C20.332 29.4527 20.7693 29.2507 21.6988 28.6375C22.6064 28.0388 23.1232 27.8618 23.9645 27.8618C24.8323 27.8618 25.3159 28.0369 26.3903 28.7401C28.4864 30.1119 30.5933 30.082 32.6996 28.6505C33.3878 28.1828 34.145 27.861 34.5661 27.8575C35.4088 27.8505 35.9137 27.4796 35.9137 26.8676C35.9137 26.4465 35.6459 26.0927 35.2427 25.9814C34.8481 25.8724 33.7428 25.9971 33.1687 26.2152C32.9243 26.3081 32.2998 26.6492 31.7809 26.9733C30.657 27.6752 30.3467 27.7862 29.5021 27.7885C28.6385 27.7909 28.2429 27.6663 27.432 27.137C26.5426 26.5564 26.0036 26.2865 25.3982 26.1186C24.7695 25.9443 23.8748 25.8803 23.2451 25.9645ZM1.73197 31.6959C1.17395 31.8345 0.872074 32.3799 1.05194 32.9247C1.1885 33.3384 1.47726 33.5064 2.20976 33.5984C2.93057 33.6889 3.43612 33.8965 4.20186 34.4165C5.77485 35.4847 7.7099 35.819 8.17871 35.1036C8.44617 34.6954 8.40592 34.2054 8.0779 33.8773C7.86713 33.6666 7.7188 33.613 7.20193 33.5612C6.49926 33.4907 5.89245 33.2471 5.12716 32.7284C4.42728 32.2542 3.97788 32.0324 3.38761 31.87C2.83498 31.718 1.99755 31.63 1.73197 31.6959ZM12.6723 31.732C12.288 31.8384 12.0153 32.2027 12.0153 32.6097C12.0153 33.2129 12.51 33.6059 13.2693 33.6059C13.7553 33.6059 14.3919 33.8596 15.1313 34.348C16.7449 35.4139 17.9974 35.6973 19.5968 35.3585C20.332 35.2027 20.7693 35.0007 21.6988 34.3875C22.6201 33.7797 23.1192 33.6119 24.0094 33.611C24.8429 33.6101 25.3234 33.7758 26.423 34.4434C27.3879 35.0291 28.0856 35.3049 28.9049 35.4244C30.1578 35.6069 30.67 35.2838 30.6233 34.3402C30.6176 34.2252 30.4997 34.0179 30.3612 33.8794C30.1581 33.6763 29.9976 33.6157 29.5302 33.5658C28.6888 33.4759 28.2504 33.3109 27.2493 32.7071C26.1507 32.0446 25.6233 31.8424 24.6882 31.7251C23.1697 31.5348 22.1243 31.8248 20.4948 32.8884C19.6768 33.4225 19.2875 33.5431 18.3942 33.5393C17.5993 33.536 17.0558 33.3526 16.2781 32.825C15.5646 32.3409 14.7292 31.9265 14.2492 31.8182C13.6394 31.6807 12.9864 31.6451 12.6723 31.732Z" fill="black"/>
<path fill-rule="evenodd" clip-rule="evenodd" d="M29.2204 1.16038C28.8379 1.39747 25.6346 4.65584 24.2624 6.20358C20.4477 10.5066 17.4871 14.7586 15.4518 18.8569L14.6784 20.4145L14.4025 20.3623C12.454 19.9931 11.3408 20.184 9.88538 21.1368C8.7193 21.9002 8.34555 22.0375 7.43327 22.0375C6.521 22.0375 6.14725 21.9002 4.98117 21.1368C4.13277 20.5814 3.48212 20.3276 2.62861 20.2195C1.67249 20.0982 1.23262 20.2631 1.05194 20.8106C0.922296 21.2034 1.06443 21.6736 1.37412 21.8765C1.49559 21.9561 1.87159 22.056 2.20976 22.0984C2.93057 22.1889 3.43612 22.3965 4.20186 22.9165C6.31867 24.354 8.53404 24.3612 10.635 22.9374C11.6015 22.2825 11.9011 22.1671 12.7466 22.1242C13.7054 22.0756 14.1721 22.2149 15.116 22.8311C16.0873 23.4652 16.6269 23.7197 17.3043 23.8633C18.0676 24.0251 18.8179 24.0235 19.5968 23.8585C20.3411 23.7007 20.7123 23.5274 21.803 22.8281C22.6245 22.3013 22.9529 22.1853 23.9791 22.059C24.8683 21.9496 25.2007 21.0659 24.5867 20.4439C24.3358 20.1898 24.2843 20.1756 23.6819 20.1938C22.6479 20.225 21.7377 20.5551 20.6403 21.2968C20.3685 21.4804 20.0198 21.6956 19.8655 21.7749C19.4209 22.0034 18.5104 22.1154 17.9025 22.0164C17.2864 21.9162 16.4176 21.5072 16.4176 21.3175C16.4176 21.1594 17.6718 18.6434 18.2699 17.6014C20.6845 13.3952 24.7861 8.16828 28.7632 4.22908L29.7135 3.28788L30.3074 3.8697C32.5325 6.04976 35.4395 9.36455 37.3573 11.9087C42.7966 19.1245 45.3865 25.5354 44.9865 30.7943C44.6986 34.5806 43.1784 37.9131 40.5317 40.5598C35.9721 45.1194 29.0339 46.3503 23.2716 43.622C21.7872 42.9192 19.4346 41.3214 19.6283 41.1477C19.666 41.1138 19.9258 41.0158 20.2055 40.93C20.4852 40.8441 21.1469 40.4971 21.676 40.1589C22.6325 39.5472 22.9275 39.4384 23.9791 39.309C24.8683 39.1996 25.2007 38.3159 24.5867 37.6939C24.3358 37.4398 24.2843 37.4256 23.6819 37.4438C22.6078 37.4763 21.827 37.7688 20.497 38.637C19.6767 39.1725 19.2879 39.2927 18.3941 39.2867C17.5891 39.2814 17.0466 39.0965 16.2504 38.5558C15.2949 37.9068 14.4737 37.5652 13.642 37.4703C12.2248 37.3087 11.1208 37.578 9.88538 38.3868C8.7193 39.1502 8.34555 39.2875 7.43327 39.2875C6.521 39.2875 6.14725 39.1502 4.98117 38.3868C4.13277 37.8314 3.48212 37.5776 2.62861 37.4695C1.67249 37.3482 1.23262 37.5131 1.05194 38.0606C0.922296 38.4533 1.06443 38.9236 1.37412 39.1265C1.49559 39.2061 1.87159 39.306 2.20976 39.3484C2.93057 39.4389 3.43612 39.6465 4.20186 40.1665C6.31867 41.604 8.53404 41.6112 10.635 40.1874C11.6015 39.5325 11.9011 39.4171 12.7466 39.3742C13.7054 39.3256 14.1721 39.4649 15.116 40.0811C15.4883 40.3241 15.984 40.6202 16.2176 40.7391C16.4614 40.8631 16.863 41.2057 17.1608 41.5437C18.3254 42.8657 20.2989 44.3101 22.2126 45.241C27.4546 47.7913 33.6899 47.5068 38.6091 44.4929C43.6531 41.4024 46.703 36.1946 46.9319 30.2817C47.0864 26.2881 45.6884 21.6144 42.8703 16.7041C41.0225 13.4845 38.4209 9.89723 35.5483 6.60787C34.2878 5.16435 30.4759 1.292 30.1458 1.11941C29.8182 0.948255 29.543 0.960384 29.2204 1.16038ZM1.73197 25.9459C1.17395 26.0845 0.872074 26.6299 1.05194 27.1747C1.1885 27.5884 1.47726 27.7564 2.20976 27.8484C2.93057 27.9389 3.43612 28.1465 4.20186 28.6665C6.31867 30.104 8.53404 30.1112 10.635 28.6874C11.4723 28.1201 11.8812 27.9469 12.6 27.8558C13.406 27.7537 13.6875 27.5888 13.8219 27.1401C13.987 26.589 13.7058 26.1384 13.0698 25.9348C12.8154 25.8533 11.6379 26.0347 11.0898 26.2398C10.8124 26.3436 10.2704 26.6347 9.88538 26.8868C8.7193 27.6502 8.34555 27.7875 7.43327 27.7875C6.54319 27.7875 6.08238 27.6258 5.12716 26.9784C4.42728 26.5042 3.97788 26.2824 3.38761 26.12C2.83498 25.968 1.99755 25.88 1.73197 25.9459ZM23.2451 25.9645C22.3363 26.0862 21.674 26.3687 20.497 27.137C19.773 27.6097 19.483 27.7154 18.6349 27.8161C17.7376 27.9227 17.2859 28.5371 17.6241 29.1912C17.9058 29.7359 18.4509 29.8513 19.5968 29.6085C20.332 29.4527 20.7693 29.2507 21.6988 28.6375C22.6064 28.0388 23.1232 27.8618 23.9645 27.8618C24.8323 27.8618 25.3159 28.0369 26.3903 28.7401C28.4864 30.1119 30.5933 30.082 32.6996 28.6505C33.3878 28.1828 34.145 27.861 34.5661 27.8575C35.4088 27.8505 35.9137 27.4796 35.9137 26.8676C35.9137 26.4465 35.6459 26.0927 35.2427 25.9814C34.8481 25.8724 33.7428 25.9971 33.1687 26.2152C32.9243 26.3081 32.2998 26.6492 31.7809 26.9733C30.657 27.6752 30.3467 27.7862 29.5021 27.7885C28.6385 27.7909 28.2429 27.6663 27.432 27.137C26.5426 26.5564 26.0036 26.2865 25.3982 26.1186C24.7695 25.9443 23.8748 25.8803 23.2451 25.9645ZM1.73197 31.6959C1.17395 31.8345 0.872074 32.3799 1.05194 32.9247C1.1885 33.3384 1.47726 33.5064 2.20976 33.5984C2.93057 33.6889 3.43612 33.8965 4.20186 34.4165C5.77485 35.4847 7.7099 35.819 8.17871 35.1036C8.44617 34.6954 8.40592 34.2054 8.0779 33.8773C7.86713 33.6666 7.7188 33.613 7.20193 33.5612C6.49926 33.4907 5.89245 33.2471 5.12716 32.7284C4.42728 32.2542 3.97788 32.0324 3.38761 31.87C2.83498 31.718 1.99755 31.63 1.73197 31.6959ZM12.6723 31.732C12.288 31.8384 12.0153 32.2027 12.0153 32.6097C12.0153 33.2129 12.51 33.6059 13.2693 33.6059C13.7553 33.6059 14.3919 33.8596 15.1313 34.348C16.7449 35.4139 17.9974 35.6973 19.5968 35.3585C20.332 35.2027 20.7693 35.0007 21.6988 34.3875C22.6201 33.7797 23.1192 33.6119 24.0094 33.611C24.8429 33.6101 25.3234 33.7758 26.423 34.4434C27.3879 35.0291 28.0856 35.3049 28.9049 35.4244C30.1578 35.6069 30.67 35.2838 30.6233 34.3402C30.6176 34.2252 30.4997 34.0179 30.3612 33.8794C30.1581 33.6763 29.9976 33.6157 29.5302 33.5658C28.6888 33.4759 28.2504 33.3109 27.2493 32.7071C26.1507 32.0446 25.6233 31.8424 24.6882 31.7251C23.1697 31.5348 22.1243 31.8248 20.4948 32.8884C19.6768 33.4225 19.2875 33.5431 18.3942 33.5393C17.5993 33.536 17.0558 33.3526 16.2781 32.825C15.5646 32.3409 14.7292 31.9265 14.2492 31.8182C13.6394 31.6807 12.9864 31.6451 12.6723 31.732Z" stroke="black" mask="url(#path-1-outside-1_202_714)"/>
</svg>
